<svg width="61" height="61" viewBox="0 0 61 61" fill="none" xmlns="http://www.w3.org/2000/svg">
<rect width="60.0758" height="61" rx="26" fill="black"/>
<rect x="11.0908" y="10.1667" width="4.62121" height="32.3485" rx="2" fill="white"/>
<path d="M27.7273 12.1667C27.7273 11.0621 28.6227 10.1667 29.7273 10.1667H30.0379H30.3485C31.4531 10.1667 32.3485 11.0621 32.3485 12.1667V40.5151C32.3485 41.6197 31.4531 42.5151 30.3485 42.5151H29.7273C28.6227 42.5151 27.7273 41.6197 27.7273 40.5151V12.1667Z" fill="white"/>
<rect x="44.3635" y="10.1667" width="4.62121" height="32.3485" rx="2" fill="white"/>
<rect x="19.4092" y="18.4848" width="4.62121" height="32.3485" rx="2" fill="white"/>
<rect x="36.0454" y="18.4848" width="4.62121" height="32.3485" rx="2" fill="white"/>
<path d="M37.3954 15.1238C36.5818 15.9956 35.1211 15.4198 35.1211 14.2273V13.583C35.1211 12.7171 35.823 12.0152 36.6889 12.0152H38.3559H40.023C40.8888 12.0152 41.5908 12.7171 41.5908 13.583V14.2273C41.5908 15.4198 40.1301 15.9956 39.3164 15.1238C38.797 14.5673 37.9149 14.5673 37.3954 15.1238Z" fill="white"/>
<path d="M20.7592 15.1238C19.9456 15.9956 18.4849 15.4198 18.4849 14.2273V13.583C18.4849 12.7171 19.1868 12.0152 20.0527 12.0152H21.7197H23.3867C24.2526 12.0152 24.9546 12.7171 24.9546 13.583V14.2273C24.9546 15.4198 23.4939 15.9956 22.6802 15.1238C22.1608 14.5673 21.2786 14.5673 20.7592 15.1238Z" fill="white"/>
</svg>
