<svg width="1024" height="1024" viewBox="0 0 1024 1024" fill="none" xmlns="http://www.w3.org/2000/svg">
<rect width="1024" height="1024" fill="#1E1E1E"/>
<path d="M930 512C930 742.855 742.855 930 512 930C281.145 930 94 742.855 94 512C94 281.145 281.145 94 512 94C742.855 94 930 281.145 930 512Z" fill="url(#paint0_linear_218_269)"/>
<path d="M643.744 750.857C629.626 750.857 615.935 749.126 602.672 745.665C589.409 742.636 577.429 735.279 566.733 723.596C556.037 711.913 547.266 693.739 540.421 669.075C533.575 643.977 529.511 610.009 528.227 567.171C510.258 598.759 490.364 627.101 468.544 652.199C447.152 677.296 425.546 697.201 403.726 711.913C382.334 726.192 362.225 733.332 343.4 733.332C324.575 733.332 307.462 728.572 292.06 719.053C277.085 709.533 265.106 693.523 256.121 671.022C247.564 648.521 243.286 618.014 243.286 579.503C243.286 549.646 245.853 519.356 250.987 488.634C256.121 457.478 262.752 427.837 270.881 399.711C279.01 371.152 287.781 345.622 297.194 323.121C306.606 300.62 315.805 282.879 324.789 269.898C334.202 256.916 342.331 250.425 349.176 250.425C365.434 250.425 377.414 254.753 385.115 263.407C392.816 271.628 396.666 282.23 396.666 295.211C396.666 300.836 394.313 311.871 389.607 328.314C384.901 344.324 379.125 363.796 372.28 386.73C365.434 409.231 358.375 433.463 351.101 459.425C344.256 484.955 338.48 510.269 333.774 535.366C329.068 560.464 326.715 583.398 326.715 604.168C326.715 612.822 327.356 620.178 328.64 626.236C330.351 631.861 333.346 634.674 337.624 634.674C360.3 634.674 381.264 626.02 400.517 608.711C420.198 590.97 438.167 567.603 454.425 538.612C471.111 509.187 485.871 476.95 498.706 441.901C511.969 406.418 523.735 370.936 534.003 335.453C533.148 327.665 532.506 320.092 532.078 312.736C532.078 305.38 532.078 297.375 532.078 288.72C532.078 279.201 535.715 269.032 542.988 258.214C550.261 247.396 559.032 238.31 569.3 230.953C579.996 223.165 590.05 219.27 599.463 219.27C610.159 219.27 618.93 222.732 625.775 229.655C633.048 236.579 636.685 248.695 636.685 266.003C636.685 280.283 636.043 292.182 634.76 301.702C633.904 310.789 632.406 319.443 630.267 327.665C628.556 335.886 626.631 345.189 624.491 355.574C622.78 365.527 620.855 378.508 618.716 394.519C617.004 410.529 615.507 431.083 614.223 456.18C613.368 481.277 612.94 512.865 612.94 550.944C612.94 553.54 612.94 556.137 612.94 558.733C612.94 560.896 612.94 563.276 612.94 565.873C612.512 577.989 612.726 590.321 613.582 602.87C614.437 615.418 617.646 625.803 623.208 634.025C628.77 642.246 638.61 646.357 652.729 646.357C668.131 646.357 682.678 636.405 696.369 616.5C710.06 596.595 722.253 568.902 732.949 533.419C743.645 497.504 752.844 455.531 760.545 407.5C768.246 359.036 774.022 306.678 777.872 250.425C779.156 231.386 782.365 217.107 787.499 207.587C793.061 198.067 799.264 191.793 806.11 188.764C812.955 185.302 818.945 183.571 824.079 183.571C829.213 183.571 835.417 184.437 842.69 186.168C849.963 187.899 856.381 192.875 861.943 201.096C867.505 209.318 870.286 223.165 870.286 242.637C870.286 317.063 864.938 382.403 854.242 438.655C843.546 494.908 829.641 542.939 812.527 582.748C795.414 622.558 776.589 654.795 756.052 679.46C735.944 704.124 716.049 722.082 696.369 733.332C676.688 745.015 659.147 750.857 643.744 750.857Z" fill="white"/>
<defs>
<linearGradient id="paint0_linear_218_269" x1="795.643" y1="168.643" x2="168.643" y2="840.429" gradientUnits="userSpaceOnUse">
<stop stop-color="#EF233C"/>
<stop offset="1" stop-color="#B30318"/>
</linearGradient>
</defs>
</svg>
